PathFileType	4	(X/Y/Z)	/Users/itak/Documents/Research/Walk-IL/dataset/trc/00018_00004.trc
DataRate	CameraRate	NumFrames	NumMarkers	Units	OrigDataRate	OrigDataStartFrame	OrigNumFrames
100.000000	100.000000	4	54	mm	100.000000	207	552
Frame#	Time	RPSI			LPSI			L3			STRN			T10			C7			CLAV			RBAK			LBAK			LSHO			LUPA			LAEL			LAOL			LWPS			LFRA			LIFD			LHPS			LHTS			RSHO			RUPA			RAEL			RAOL			RWTS			RWPS			RFRA			RIFD			RHTS			RHPS			RBHD			LFHD			RFHD			LBHD			LHIP			RHIP			RASI			LASI			LKNE			LTHI			LANK			LTIP			LTOE			LMT1			LMT5			LHEE			RKNE			RTHI			RANK			RTIP			RTOE			RMT1			RMT5			RHEE			LWTS			*53			
		X1	Y1	Z1	X2	Y2	Z2	X3	Y3	Z3	X4	Y4	Z4	X5	Y5	Z5	X6	Y6	Z6	X7	Y7	Z7	X8	Y8	Z8	X9	Y9	Z9	X10	Y10	Z10	X11	Y11	Z11	X12	Y12	Z12	X13	Y13	Z13	X14	Y14	Z14	X15	Y15	Z15	X16	Y16	Z16	X17	Y17	Z17	X18	Y18	Z18	X19	Y19	Z19	X20	Y20	Z20	X21	Y21	Z21	X22	Y22	Z22	X23	Y23	Z23	X24	Y24	Z24	X25	Y25	Z25	X26	Y26	Z26	X27	Y27	Z27	X28	Y28	Z28	X29	Y29	Z29	X30	Y30	Z30	X31	Y31	Z31	X32	Y32	Z32	X33	Y33	Z33	X34	Y34	Z34	X35	Y35	Z35	X36	Y36	Z36	X37	Y37	Z37	X38	Y38	Z38	X39	Y39	Z39	X40	Y40	Z40	X41	Y41	Z41	X42	Y42	Z42	X43	Y43	Z43	X44	Y44	Z44	X45	Y45	Z45	X46	Y46	Z46	X47	Y47	Z47	X48	Y48	Z48	X49	Y49	Z49	X50	Y50	Z50	X51	Y51	Z51	X52	Y52	Z52	X53	Y53	Z53	X54	Y54	Z54	

208	2.07	494.3356628417969	1058.78271484375	-229.4620361328125	464.1812438964844	1053.085693359375	-389.0864562988281	477.8722534179688	1124.322387695312	-320.474853515625	709.719482421875	1312.240966796875	-345.4342651367188	461.5894470214844	1267.830688476562	-328.2225036621094	510.3490295410156	1533.927490234375	-345.4156494140625	669.3986206054688	1439.615234375	-347.3499450683594	463.9749145507812	1398.164184570312	-261.2991943359375	488.8083190917969	1492.436401367188	-442.3631591796875	589.593017578125	1497.79248046875	-520.194091796875	555.3045043945312	1376.004150390625	-600.935546875	552.472412109375	1160.73291015625	-637.0571899414062	496.9710083007812	1144.078857421875	-549.4259643554688	568.05322265625	893.3330688476562	-636.22119140625	566.71337890625	1045.268920898438	-648.5803833007812	674.911376953125	724.1891479492188	-581.583251953125	603.177978515625	804.6700439453125	-639.0563354492188	667.9422607421875	815.6917724609375	-610.675048828125	598.5343627929688	1520.021240234375	-174.6326293945312	587.79736328125	1449.440063476562	-100.9634475708008	542.5272827148438	1184.05908203125	-72.64704132080078	537.346435546875	1154.143310546875	-167.9298858642578	646.8599243164062	913.3705444335938	-95.68487548828125	581.317138671875	908.1384887695312	-31.77603721618652	550.99462890625	1109.270629882812	-55.35947799682617	646.9066162109375	724.8574829101562	-100.4963150024414	667.8391723632812	800.7958374023438	-76.55332183837891	611.381591796875	804.53466796875	-27.76849365234375	559.3603515625	1709.0751953125	-272.352294921875	739.8510131835938	1734.69677734375	-379.6078491210938	732.4312744140625	1734.848754882812	-281.2220458984375	561.7826538085938	1713.095825195312	-416.6339111328125	537.0712890625	950.8499145507812	-508.5205383300781	627.181396484375	957.3602905273438	-148.2741241455078	710.229736328125	987.6055297851562	-238.704833984375	664.0068359375	998.8007202148438	-469.0141906738281	639.8545532226562	511.2887878417969	-455.5014953613281	593.8052368164062	643.726318359375	-491.4413757324219	514.1331787109375	30.75928688049316	-414.2804565429688	550.4786376953125	274.0803833007812	-448.0180358886719	733.5068969726562	33.44921493530273	-342.4884948730469	674.0119018554688	42.00189208984375	-328.4032592773438	640.0897216796875	29.36443138122559	-430.8978881835938	445.1981201171875	42.59230041503906	-361.8230590820312	717.5012817382812	526.9832763671875	-174.4306030273438	673.9093017578125	797.1541748046875	-147.0627746582031	489.7444152832031	76.22681427001953	-158.4868927001953	671.5365600585938	403.6749572753906	-161.1417541503906	720.77978515625	44.1373291015625	-179.3080596923828	660.2823486328125	53.42998123168945	-215.5029754638672	633.1779174804688	53.02532958984375	-122.7553787231445	437.3306274414062	79.53433227539062	-208.8917388916016	644.0646362304688	907.788330078125	-592.3170776367188	nan	nan	nan	
209	2.08	489.2178344726562	1058.80517578125	-228.9640502929688	459.3156127929688	1053.241943359375	-388.7330017089844	472.9169006347656	1124.282348632812	-319.8649597167969	704.3897094726562	1312.309448242188	-345.2673645019531	456.3857116699219	1267.848999023438	-327.2525024414062	504.8738403320312	1533.979614257812	-344.6576843261719	664.0053100585938	1439.643920898438	-347.1317138671875	458.8597106933594	1398.192993164062	-260.2977294921875	483.0575866699219	1492.402954101562	-441.465087890625	583.546142578125	1497.774169921875	-519.7359619140625	548.5136108398438	1375.942749023438	-600.1578369140625	544.3123168945312	1160.722778320312	-635.9678344726562	489.4350891113281	1144.460693359375	-547.8704833984375	557.7673950195312	893.230224609375	-635.2244873046875	557.5997314453125	1045.158447265625	-647.5726318359375	663.64208984375	723.1950073242188	-581.5086059570312	592.1175537109375	804.2789916992188	-638.3359985351562	657.2200927734375	814.7889404296875	-610.5193481445312	593.7446899414062	1520.185913085938	-174.1956939697266	583.3888549804688	1449.55615234375	-100.4602584838867	539.0667724609375	1183.99169921875	-71.98047637939453	533.4298706054688	1154.112060546875	-167.2413635253906	644.2525024414062	913.6929931640625	-95.75215148925781	579.0935668945312	908.187744140625	-31.49047660827637	547.9068603515625	1109.2197265625	-54.77963638305664	644.9943237304688	725.1766967773438	-100.6220550537109	665.786376953125	801.2118530273438	-76.79788970947266	609.6154174804688	804.7177734375	-27.64912605285645	554.1689453125	1709.25634765625	-271.8486022949219	734.4034423828125	1734.713256835938	-379.5589904785156	727.21533203125	1734.881103515625	-281.1456604003906	556.23046875	1713.247802734375	-416.1462097167969	532.6866455078125	951.178466796875	-508.1283264160156	621.5873413085938	956.9351196289062	-147.6477508544922	705.0619506835938	987.316650390625	-237.7140808105469	659.5022583007812	999.1076049804688	-468.1618041992188	636.6378784179688	511.9066162109375	-454.8761901855469	590.2335815429688	644.073974609375	-491.1211547851562	514.0848999023438	30.67389297485352	-414.4140625	548.8353271484375	274.2455444335938	-447.7899475097656	733.3917846679688	33.46077346801758	-342.4085083007812	673.8936767578125	41.99771499633789	-328.3377990722656	640.050537109375	29.38036346435547	-430.8219604492188	445.1017456054688	42.27254104614258	-361.9666137695312	707.1470336914062	525.1842651367188	-173.4471130371094	666.837158203125	796.1829223632812	-146.2058715820312	470.1559448242188	79.58715057373047	-157.2551574707031	658.8340454101562	402.7388610839844	-160.2034912109375	700.2909545898438	43.64640808105469	-178.0679931640625	640.015380859375	53.61203765869141	-214.3402252197266	612.8524780273438	53.83688354492188	-121.5599975585938	417.5694274902344	83.34202575683594	-207.8150329589844	634.3546752929688	907.1516723632812	-591.9548950195312	nan	nan	nan	
210	2.09	484.0628051757812	1058.844604492188	-228.4494171142578	454.4444580078125	1053.425048828125	-388.36865234375	467.9454345703125	1124.26123046875	-319.2409057617188	699.0672607421875	1312.393798828125	-345.0233154296875	451.1201782226562	1267.87109375	-326.2221069335938	499.3692016601562	1534.031982421875	-343.8223266601562	658.5992431640625	1439.68359375	-346.8380737304688	453.7256469726562	1398.221801757812	-259.2181091308594	477.2862854003906	1492.373901367188	-440.4910888671875	577.4722290039062	1497.764892578125	-519.194091796875	541.7041625976562	1375.8876953125	-599.2777099609375	536.1441650390625	1160.722412109375	-634.7406616210938	481.9210510253906	1144.855834960938	-546.166748046875	547.4297485351562	893.1532592773438	-634.0696411132812	548.460205078125	1045.064331054688	-646.4188842773438	652.294677734375	722.2171630859375	-581.2799072265625	580.9694213867188	803.9089965820312	-637.4563598632812	646.4281005859375	813.8989868164062	-610.2308959960938	588.9326782226562	1520.36279296875	-173.6923675537109	578.9712524414062	1449.683349609375	-99.88838958740234	535.683349609375	1183.917724609375	-71.26006317138672	529.5608520507812	1154.086059570312	-166.5046081542969	641.853515625	914.0709838867188	-95.81938171386719	577.0995483398438	908.2460327148438	-31.1983814239502	544.9200439453125	1109.159423828125	-54.16078567504883	643.3883666992188	725.55078125	-100.800407409668	664.001953125	801.69384765625	-77.06708526611328	608.1217041015625	804.9235229492188	-27.5620002746582	548.9664916992188	1709.46044921875	-271.28125	728.9509887695312	1734.70947265625	-379.4718933105469	722.0004272460938	1734.905883789062	-281.0302734375	550.6611328125	1713.41162109375	-415.595703125	528.2691040039062	951.5205078125	-507.7313232421875	615.9517211914062	956.5296630859375	-146.9588928222656	699.8555297851562	987.036865234375	-236.6632080078125	654.9910278320312	999.4061889648438	-467.2507934570312	633.3914184570312	512.53955078125	-454.2112731933594	586.6483764648438	644.4384765625	-490.7571105957031	514.0475463867188	30.59925270080566	-414.5341186523438	547.1710815429688	274.4252014160156	-447.5653686523438	733.268310546875	33.46467590332031	-342.3160095214844	673.7847900390625	42.00205993652344	-328.2752075195312	640.0127563476562	29.39678192138672	-430.741943359375	444.9841918945312	41.98665618896484	-362.1079406738281	696.6973266601562	523.455322265625	-172.5140380859375	659.7650756835938	795.2683715820312	-145.3833770751953	450.6366882324219	83.02816009521484	-156.1487426757812	646.0361938476562	401.8608093261719	-159.3773040771484	679.8292846679688	43.29405975341797	-177.3139038085938	619.71337890625	53.97135162353516	-213.5537109375	592.651611328125	54.68781280517578	-120.69091796875	397.9169921875	87.38903045654297	-206.7216796875	624.6167602539062	906.5403442382812	-591.46240234375	nan	nan	nan	
211	2.1	478.8600158691406	1058.906860351562	-227.9184112548828	449.5498352050781	1053.635375976562	-387.9910278320312	462.9407958984375	1124.264770507812	-318.6028442382812	693.751220703125	1312.494873046875	-344.6991577148438	445.7857971191406	1267.899780273438	-325.1359558105469	493.8364562988281	1534.087768554688	-342.9113159179688	653.1815185546875	1439.739013671875	-346.4722290039062	448.5778198242188	1398.254638671875	-258.0624694824219	471.4973754882812	1492.352783203125	-439.4442749023438	571.3776245117188	1497.768310546875	-518.5694580078125	534.8848266601562	1375.844482421875	-598.3009033203125	527.9783325195312	1160.738647460938	-633.3826293945312	474.4224548339844	1145.2705078125	-544.3275146484375	537.05419921875	893.1065063476562	-632.7517700195312	539.3065185546875	1044.989624023438	-645.1201171875	640.8748168945312	721.2630615234375	-580.8818359375	569.7528076171875	803.5684814453125	-636.413330078125	635.574462890625	813.0223999023438	-609.791748046875	584.0963745117188	1520.551147460938	-173.1227874755859	574.5469970703125	1449.820678710938	-99.24849700927734	532.3695678710938	1183.840454101562	-70.48041534423828	525.7345581054688	1154.066528320312	-165.7092132568359	639.649169921875	914.5078735351562	-95.88997650146484	575.3319702148438	908.3154296875	-30.89478874206543	542.0227661132812	1109.091430664062	-53.49718856811523	642.073486328125	725.9874267578125	-101.0351867675781	662.4694213867188	802.2437744140625	-77.3619384765625	606.8863525390625	805.1572875976562	-27.51300239562988	543.7488403320312	1709.6845703125	-270.6495971679688	723.489501953125	1734.694213867188	-379.3467102050781	716.7810668945312	1734.92919921875	-280.8731079101562	545.0701904296875	1713.586059570312	-414.9790344238281	523.828857421875	951.8792114257812	-507.3233642578125	610.2689819335938	956.1478881835938	-146.2106018066406	694.6054077148438	986.7738037109375	-235.5554046630859	650.4522094726562	999.6777954101562	-466.2770080566406	630.1044921875	513.18701171875	-453.5181884765625	583.0241088867188	644.8218383789062	-490.355224609375	514.0189819335938	30.53193855285645	-414.6427917480469	545.4799194335938	274.619140625	-447.3499755859375	733.136962890625	33.46802139282227	-342.2145080566406	673.6874389648438	42.01336669921875	-328.2178649902344	639.9765014648438	29.41498947143555	-430.6591491699219	444.8482055664062	41.72760772705078	-362.2527160644531	686.1611938476562	521.8115234375	-171.6338195800781	652.7076416015625	794.422607421875	-144.6292572021484	431.1483154296875	86.47942352294922	-155.2059631347656	633.1535034179688	401.0480041503906	-158.6570129394531	659.4232788085938	43.08663940429688	-176.9702911376953	599.4207153320312	54.51261138916016	-213.1082153320312	572.5943603515625	55.59510040283203	-120.1060485839844	378.4100952148438	91.65937805175781	-205.6373748779297	614.8377685546875	905.9384155273438	-590.8262329101562	nan	nan	nan	
